<svg xmlns="http://www.w3.org/2000/svg" width="1200" height="900" viewBox="0 0 1200 900" role="img" aria-labelledby="title desc">
  <title id="title">임시 이미지 자리</title>
  <desc id="desc">실제 이미지가 들어가기 전까지 사용하는 기본 이미지입니다.</desc>
  <rect width="1200" height="900" fill="#e9eee6"/>
  <path d="M0 680 170 525c45-41 112-42 158-2l74 64c35 30 87 30 121 0l205-179c47-41 118-39 162 6l310 316v170H0Z" fill="#c7d7d1"/>
  <path d="M0 742 257 560c39-28 92-27 130 2l140 107c34 26 82 25 115-3l95-81c42-36 105-34 144 4l319 307v4H0Z" fill="#9bbeb6"/>
  <circle cx="917" cy="210" r="82" fill="#f0c66f"/>
  <rect x="84" y="84" width="1032" height="732" rx="22" fill="none" stroke="#789a91" stroke-width="10" stroke-dasharray="28 24"/>
  <g fill="#264f49" text-anchor="middle" font-family="system-ui, -apple-system, BlinkMacSystemFont, 'Segoe UI', sans-serif">
    <text x="600" y="415" font-size="54" font-weight="800">이미지 준비 중</text>
    <text x="600" y="485" font-size="30">pair image placeholder</text>
  </g>
</svg>
